<svg width="77" height="977" viewBox="0 0 77 977" fill="none" xmlns="http://www.w3.org/2000/svg">
<path d="M11 49.3598C11 48.9865 11.0534 48.7198 11.16 48.5598C11.2134 48.3998 11.4267 48.2398 11.8 48.0798L26.2 42.3198L26.2 16.2398L11.8 10.4798C11.4267 10.3732 11.2134 10.2398 11.16 10.0798C11.0534 9.91984 11 9.65317 11 9.27984L11 1.91984C11 0.959841 11.3734 0.639841 12.12 0.959841L70.44 24.3198C70.8667 24.4798 71.1067 24.5865 71.16 24.6398C71.2667 24.7465 71.32 25.0665 71.32 25.5998L71.32 33.0398C71.32 33.5198 71.2667 33.8132 71.16 33.9198C71.1067 34.0265 70.8667 34.1598 70.44 34.3198L12.12 57.6798C11.3733 57.9465 11 57.6265 11 56.7198L11 49.3598ZM34.6 19.5198L34.6 38.9598L59.24 29.2798L34.6 19.5198Z" fill="#472A2A"/>
<path d="M9.88001 101.885C9.88001 99.7515 10.3867 97.6448 11.4 95.5648C12.4133 93.4848 13.6667 91.9115 15.16 90.8448L12.12 90.8448C11.2667 90.8448 10.84 90.4448 10.84 89.6448L10.84 83.5648C10.84 82.7115 11.2667 82.2848 12.12 82.2848L75.08 82.2848C75.7733 82.2848 76.12 82.6315 76.12 83.3248L76.12 89.8848C76.12 90.2582 76.04 90.4982 75.88 90.6048C75.7733 90.7648 75.5067 90.8448 75.08 90.8448L52.28 90.8448C53.8267 92.2848 55.0267 93.9382 55.88 95.8048C56.7333 97.7248 57.16 99.7515 57.16 101.885C57.16 104.712 56.6 107.245 55.48 109.485C54.36 111.778 52.7867 113.698 50.76 115.245C48.7333 116.845 46.2533 118.072 43.32 118.925C40.44 119.778 37.2133 120.205 33.64 120.205C29.96 120.205 26.6533 119.778 23.72 118.925C20.7867 118.125 18.28 116.925 16.2 115.325C14.1733 113.778 12.6267 111.858 11.56 109.565C10.44 107.325 9.88001 104.765 9.88001 101.885ZM49 101.005C49 97.8048 47.72 95.2982 45.16 93.4848C42.6533 91.7248 38.8133 90.8448 33.64 90.8448C31.1333 90.8448 28.8933 91.1115 26.92 91.6448C25 92.1782 23.3733 92.8982 22.04 93.8048C20.7067 94.7648 19.6933 95.8582 19 97.0848C18.3067 98.3115 17.96 99.6182 17.96 101.005C17.96 104.205 19.2667 106.712 21.88 108.525C24.4933 110.338 28.4133 111.245 33.64 111.245C38.4933 111.245 42.2533 110.365 44.92 108.605C47.64 106.845 49 104.312 49 101.005Z" fill="#472A2A"/>
<path d="M17.16 182.32C14.76 180.4 12.9467 178.107 11.72 175.44C10.44 172.774 9.80001 169.76 9.80001 166.4C9.80001 162.987 10.4133 159.974 11.64 157.36C12.8667 154.747 14.5467 152.56 16.68 150.8C18.8133 149.04 21.2933 147.707 24.12 146.8C26.9467 145.947 29.96 145.52 33.16 145.52C36.36 145.52 39.3733 145.947 42.2 146.8C45.0267 147.707 47.48 149.04 49.56 150.8C51.6933 152.56 53.3733 154.72 54.6 157.28C55.8267 159.894 56.44 162.934 56.44 166.4C56.44 169.814 55.8267 172.827 54.6 175.44C53.3733 178.054 51.6933 180.24 49.56 182C47.48 183.76 45.0267 185.067 42.2 185.92C39.3733 186.827 36.36 187.28 33.16 187.28C30.0133 187.28 27.0533 186.854 24.28 186C21.56 185.147 19.1867 183.92 17.16 182.32ZM48.6 166.4C48.6 164.32 48.1467 162.507 47.24 160.96C46.3333 159.467 45.1333 158.24 43.64 157.28C42.2 156.32 40.5467 155.6 38.68 155.12C36.8667 154.64 35.0267 154.4 33.16 154.4C31.2933 154.4 29.4267 154.64 27.56 155.12C25.7467 155.6 24.0933 156.32 22.6 157.28C21.1067 158.24 19.9067 159.467 19 160.96C18.0933 162.507 17.64 164.32 17.64 166.4C17.64 168.48 18.0933 170.267 19 171.76C19.9067 173.307 21.1067 174.56 22.6 175.52C24.0933 176.48 25.7467 177.2 27.56 177.68C29.4267 178.16 31.2933 178.4 33.16 178.4C34.9733 178.4 36.7867 178.16 38.6 177.68C40.4667 177.2 42.12 176.48 43.56 175.52C45.0533 174.56 46.2533 173.307 47.16 171.76C48.12 170.267 48.6 168.48 48.6 166.4Z" fill="#472A2A"/>
<path d="M11.08 242.756C11.08 242.489 11.16 242.249 11.32 242.036C11.4267 241.876 11.6133 241.823 11.88 241.876L15.08 241.876C13.3733 240.489 12.0667 238.783 11.16 236.756C10.2533 234.783 9.80001 232.703 9.80001 230.516C9.80001 225.343 11.32 221.476 14.36 218.916C17.4 216.356 21.7467 215.076 27.4 215.076L54.2 215.076C54.4667 215.076 54.7067 215.156 54.92 215.316C55.1867 215.529 55.32 215.769 55.32 216.036L55.32 222.596C55.32 222.863 55.1867 223.103 54.92 223.316C54.6533 223.529 54.3867 223.636 54.12 223.636L28.68 223.636C24.68 223.636 21.8533 224.276 20.2 225.556C18.5467 226.889 17.72 228.836 17.72 231.396C17.72 234.276 18.8133 236.649 21 238.516C23.1867 240.436 26.44 241.396 30.76 241.396L54.2 241.396C54.4667 241.396 54.7067 241.476 54.92 241.636C55.1867 241.849 55.32 242.089 55.32 242.356L55.32 248.996C55.32 249.263 55.16 249.476 54.84 249.636C54.5733 249.849 54.3067 249.956 54.04 249.956L21.4 249.956C19.7467 249.956 18.12 249.983 16.52 250.036C14.92 250.089 13.4533 250.116 12.12 250.116C11.4267 250.116 11.08 249.823 11.08 249.236L11.08 242.756Z" fill="#472A2A"/>
<path d="M11.72 302.552C11.24 301.805 10.8133 300.605 10.44 298.952C10.0133 297.352 9.80001 295.618 9.80001 293.752C9.80001 291.512 10.28 289.725 11.24 288.392C12.1467 287.058 13.2133 286.072 14.44 285.432C15.8267 284.685 17.4533 284.232 19.32 284.072C21.1867 283.912 23.72 283.832 26.92 283.832L47 283.832L47 277.192C47 276.925 47.08 276.685 47.24 276.472C47.4533 276.312 47.6933 276.232 47.96 276.232L54.28 276.232C54.5467 276.232 54.76 276.312 54.92 276.472C55.1333 276.685 55.24 276.925 55.24 277.192L55.24 283.832L66.44 283.832C66.7067 283.832 66.92 283.938 67.08 284.152C67.2933 284.365 67.4 284.605 67.4 284.872L67.4 291.352C67.4 291.672 67.2933 291.912 67.08 292.072C66.92 292.285 66.7067 292.392 66.44 292.392L55.24 292.392L55.24 300.072C55.24 300.338 55.1333 300.552 54.92 300.712C54.76 300.925 54.5467 301.032 54.28 301.032L47.96 301.032C47.6933 301.032 47.4533 300.925 47.24 300.712C47.08 300.552 47 300.338 47 300.072L47 292.392L26.36 292.392C22.7333 292.392 20.44 292.472 19.48 292.632C18.52 292.845 17.9333 293.352 17.72 294.152C17.5067 294.952 17.4533 295.858 17.56 296.872C17.6667 297.565 17.8 298.338 17.96 299.192C18.1733 300.045 18.4133 300.792 18.68 301.432C18.7867 301.698 18.7867 301.885 18.68 301.992C18.6267 302.098 18.3867 302.205 17.96 302.312L12.68 302.952C12.3067 303.005 11.9867 302.872 11.72 302.552Z" fill="#472A2A"/>
<path d="M0.760003 321.694C0.760003 321.428 0.86667 321.188 1.08 320.974C1.24 320.814 1.45334 320.734 1.72 320.734L8.12 320.734C8.38667 320.734 8.62666 320.814 8.84 320.974C9 321.188 9.08 321.428 9.08 321.694L9.08 363.454C9.08 363.721 9 363.934 8.84 364.094C8.62666 364.308 8.38667 364.414 8.12 364.414L1.72 364.414C1.45333 364.414 1.24 364.308 1.08 364.094C0.866668 363.934 0.760002 363.721 0.760002 363.454L0.760003 321.694Z" fill="#472A2A"/>
<path d="M11.96 413.368C11.32 413.368 11 413.048 11 412.408L11 405.288C11 404.648 11.32 404.328 11.96 404.328L36.12 404.328L70.28 383.208C70.9733 382.835 71.32 383.075 71.32 383.928L71.32 392.008C71.32 392.541 71.16 392.888 70.84 393.048L45.16 408.888L70.84 424.808C71.16 424.968 71.32 425.315 71.32 425.848L71.32 433.928C71.32 434.781 70.9733 435.021 70.28 434.648L36.04 413.368L11.96 413.368Z" fill="#472A2A"/>
<path d="M15.32 484.953C13.8267 483.566 12.5733 481.78 11.56 479.593C10.4933 477.46 9.85333 475.193 9.63999 472.793C9.53333 471.513 9.53333 470.073 9.63999 468.473C9.74666 466.926 9.93333 465.406 10.2 463.913C10.4133 462.473 10.68 461.14 11 459.913C11.2667 458.74 11.5333 457.886 11.8 457.353C12.1733 456.553 12.4667 456.073 12.68 455.913C12.84 455.753 13.2133 455.726 13.8 455.833L19.72 456.393C20.1467 456.446 20.4133 456.58 20.52 456.793C20.6267 457.006 20.5467 457.406 20.28 457.993C20.0133 458.633 19.6933 459.54 19.32 460.713C19 461.886 18.7067 463.193 18.44 464.633C18.2267 466.073 18.0933 467.513 18.04 468.953C17.9867 470.446 18.0933 471.78 18.36 472.953C18.7333 474.5 19.2133 475.753 19.8 476.713C20.44 477.673 21.16 478.42 21.96 478.953C22.8133 479.54 23.72 479.94 24.68 480.153C25.6933 480.366 26.7333 480.473 27.8 480.473C28.8133 480.473 30.2 479.806 31.96 478.473C33.72 477.193 35.32 475.326 36.76 472.873C38.52 469.886 40.1467 467.3 41.64 465.113C43.1867 462.926 44.7067 461.113 46.2 459.673C47.6933 458.286 49.24 457.246 50.84 456.553C52.44 455.86 54.2 455.513 56.12 455.513C58.3067 455.513 60.3867 455.966 62.36 456.873C64.3867 457.833 66.1467 459.113 67.64 460.713C69.1333 462.366 70.3067 464.313 71.16 466.553C72.0667 468.846 72.52 471.353 72.52 474.073C72.52 476.846 72.3333 479.113 71.96 480.873C71.64 482.686 71.24 484.233 70.76 485.513C70.5467 486.1 70.3067 486.446 70.04 486.553C69.8267 486.713 69.5333 486.74 69.16 486.633L64.04 485.593C63.4533 485.486 63.0533 485.3 62.84 485.033C62.6267 484.82 62.6267 484.42 62.84 483.833C63.1067 483.033 63.3467 482.153 63.56 481.193C63.8267 480.233 64.04 479.246 64.2 478.233C64.36 477.22 64.4667 476.233 64.52 475.273C64.5733 474.366 64.5467 473.54 64.44 472.793C63.96 469.806 62.9733 467.7 61.48 466.473C60.04 465.3 58.2 464.713 55.96 464.713C54.6267 464.713 53.1333 465.406 51.48 466.793C49.88 468.18 48.28 470.206 46.68 472.873C44.6533 476.233 42.84 478.98 41.24 481.113C39.64 483.3 38.0933 485.006 36.6 486.233C35.16 487.513 33.6933 488.393 32.2 488.873C30.7067 489.406 29.08 489.673 27.32 489.673C22.6267 489.673 18.6267 488.1 15.32 484.953Z" fill="#472A2A"/>
<path d="M11 520.067C11 519.8 11.1067 519.56 11.32 519.347C11.48 519.187 11.6933 519.107 11.96 519.107L70.36 519.107C70.6267 519.107 70.84 519.187 71 519.347C71.2133 519.56 71.32 519.8 71.32 520.067L71.32 527.187C71.32 527.453 71.2133 527.667 71 527.827C70.84 528.04 70.6267 528.147 70.36 528.147L46.36 528.147L46.36 552.947L70.36 552.947C70.6267 552.947 70.84 553.027 71 553.187C71.2133 553.4 71.32 553.64 71.32 553.907L71.32 561.027C71.32 561.293 71.2133 561.507 71 561.667C70.84 561.88 70.6267 561.987 70.36 561.987L11.96 561.987C11.6933 561.987 11.48 561.88 11.32 561.667C11.1067 561.507 11 561.293 11 561.027L11 553.907C11 553.267 11.32 552.947 11.96 552.947L37.96 552.947L37.96 528.147L11.96 528.147C11.32 528.147 11 527.827 11 527.187L11 520.067Z" fill="#472A2A"/>
<path d="M30.944 902.752C31.0506 902.41 31.2426 902.272 31.52 902.336L32.992 902.464C33.1626 902.506 33.28 902.57 33.344 902.656C33.408 902.762 33.3973 902.88 33.312 903.008C32.9066 903.754 32.608 904.501 32.416 905.248C32.2453 906.016 32.16 906.89 32.16 907.872C32.16 909.429 32.5866 910.698 33.44 911.68C34.2933 912.682 35.4986 913.184 37.056 913.184C37.6746 913.184 38.2933 912.938 38.912 912.448C39.5306 911.978 40.1173 911.317 40.672 910.464C41.1413 909.717 41.632 908.874 42.144 907.936C42.656 906.997 43.2106 906.101 43.808 905.248C44.4266 904.394 45.1093 903.68 45.856 903.104C46.624 902.528 47.5093 902.24 48.512 902.24C49.536 902.24 50.432 902.453 51.2 902.88C51.9893 903.306 52.64 903.872 53.152 904.576C53.6853 905.301 54.0906 906.122 54.368 907.04C54.6453 907.957 54.784 908.896 54.784 909.856C54.784 910.688 54.7306 911.424 54.624 912.064C54.5386 912.704 54.3786 913.397 54.144 914.144C54.0373 914.464 53.8453 914.592 53.568 914.528L52.32 914.272C51.9573 914.208 51.8613 914.026 52.032 913.728C52.3093 913.13 52.4906 912.544 52.576 911.968C52.6826 911.413 52.736 910.698 52.736 909.824C52.736 909.12 52.6506 908.448 52.48 907.808C52.3093 907.189 52.0533 906.645 51.712 906.176C51.3706 905.728 50.944 905.365 50.432 905.088C49.92 904.81 49.312 904.672 48.608 904.672C48.0533 904.672 47.5306 904.853 47.04 905.216C46.5493 905.6 46.0906 906.058 45.664 906.592C45.2373 907.146 44.8426 907.733 44.48 908.352C44.1386 908.992 43.8186 909.568 43.52 910.08C43.1146 910.784 42.6986 911.466 42.272 912.128C41.8453 912.789 41.3653 913.376 40.832 913.888C40.2986 914.4 39.712 914.816 39.072 915.136C38.432 915.456 37.696 915.616 36.864 915.616C35.7973 915.616 34.848 915.392 34.016 914.944C33.184 914.517 32.48 913.941 31.904 913.216C31.328 912.49 30.8906 911.648 30.592 910.688C30.272 909.749 30.112 908.768 30.112 907.744C30.112 906.805 30.176 905.962 30.304 905.216C30.432 904.49 30.6453 903.669 30.944 902.752Z" fill="#472A2A"/>
<path d="M42.4 926.429L38.72 923.293L31.072 923.293C30.7733 923.293 30.624 923.144 30.624 922.845L30.624 921.437C30.624 921.139 30.7733 920.989 31.072 920.989L53.856 920.989C54.1546 920.989 54.304 921.139 54.304 921.437L54.304 922.845C54.304 923.144 54.1546 923.293 53.856 923.293L41.664 923.293L53.856 933.181C54.1546 933.48 54.304 933.843 54.304 934.269L54.304 936.061C54.304 936.189 54.2506 936.264 54.144 936.285C54.0586 936.328 53.9626 936.296 53.856 936.189L44.16 927.933L31.072 936.957C30.7733 937.149 30.624 937.107 30.624 936.829L30.624 935.101C30.624 934.888 30.656 934.696 30.72 934.525C30.784 934.355 30.9013 934.216 31.072 934.109L42.4 926.429Z" fill="#472A2A"/>
<path d="M31.072 943.281C30.7733 943.281 30.624 943.132 30.624 942.833L30.624 941.297C30.624 940.999 30.7733 940.849 31.072 940.849L53.856 940.849C54.1546 940.849 54.304 940.999 54.304 941.297L54.304 942.833C54.304 943.132 54.1546 943.281 53.856 943.281L31.072 943.281Z" fill="#472A2A"/>
<path d="M32.64 960.247C32.64 960.546 32.4906 960.695 32.192 960.695L31.072 960.695C30.7733 960.695 30.624 960.546 30.624 960.247L30.624 949.879C30.624 949.581 30.6346 949.346 30.656 949.175C30.656 949.026 30.6986 948.909 30.784 948.823C30.848 948.759 30.9653 948.717 31.136 948.695C31.3066 948.695 31.5413 948.695 31.84 948.695L53.856 948.695C54.1546 948.695 54.304 948.845 54.304 949.143L54.304 950.615C54.304 950.914 54.1546 951.063 53.856 951.063L32.64 951.063L32.64 960.247Z" fill="#472A2A"/>
<path d="M32.64 975.747C32.64 976.046 32.4906 976.195 32.192 976.195L31.072 976.195C30.7733 976.195 30.624 976.046 30.624 975.747L30.624 965.379C30.624 965.081 30.6346 964.846 30.656 964.675C30.656 964.526 30.6986 964.409 30.784 964.323C30.848 964.259 30.9653 964.217 31.136 964.195C31.3066 964.195 31.5413 964.195 31.84 964.195L53.856 964.195C54.1546 964.195 54.304 964.345 54.304 964.643L54.304 966.115C54.304 966.414 54.1546 966.563 53.856 966.563L32.64 966.563L32.64 975.747Z" fill="#472A2A"/>
<path d="M43 606L43 849" stroke="#472A2A" stroke-width="2"/>
</svg>
